<?xml version="1.0" standalone="no"?>
<!DOCTYPE svg PUBLIC "-//W3C//DTD SVG 20010904//EN"
 "http://www.w3.org/TR/2001/REC-SVG-20010904/DTD/svg10.dtd">
<svg version="1.0" xmlns="http://www.w3.org/2000/svg"
 width="200.000000pt" height="200.000000pt" viewBox="0 0 200.000000 200.000000"
 preserveAspectRatio="xMidYMid meet">
<metadata>
Created by potrace 1.16, written by Peter Selinger 2001-2019
</metadata>
<g transform="translate(0.000000,200.000000) scale(0.100000,-0.100000)"
fill="#000000" stroke="none">
<path d="M0 1000 l0 -1000 1000 0 1000 0 0 1000 0 1000 -1000 0 -1000 0 0
-1000z m1086 659 c152 -21 275 -82 383 -189 329 -327 230 -881 -192 -1075 -91
-42 -170 -58 -277 -58 -107 0 -186 16 -275 58 -135 62 -241 161 -310 287 l-27
49 28 42 c15 23 81 120 148 216 l121 173 3 -216 2 -216 35 0 c33 0 38 6 156
178 67 97 122 178 123 179 1 1 1 -33 1 -75 0 -66 4 -84 29 -129 20 -36 29 -68
30 -100 1 -45 3 -48 29 -51 23 -3 27 0 27 22 0 31 0 31 48 10 85 -35 225 -10
283 52 12 13 25 24 28 24 4 0 6 -24 6 -52 0 -50 1 -53 28 -56 l27 -3 0 270 0
271 -29 0 -29 0 -1 -162 c-2 -183 -11 -213 -83 -271 -31 -25 -48 -30 -105 -34
-60 -4 -74 -2 -122 24 -64 33 -89 64 -106 128 -43 173 105 314 279 265 35 -9
48 -9 67 1 24 12 23 13 -26 36 -65 29 -161 31 -222 3 -37 -16 -43 -17 -43 -4
0 11 -9 14 -32 12 -29 -3 -44 -21 -182 -222 l-151 -219 -3 221 -2 222 -33 0
c-31 0 -39 -11 -192 -235 -125 -182 -162 -230 -167 -215 -20 53 -29 183 -18
261 45 331 307 569 647 588 12 0 56 -4 99 -10z"/>
</g>
</svg>
